# xmcd
#
# Track frame offsets:
#	150
#	18434
#	34986
#	45385
#	58531
#	69934
#	79877
#	91119
#	102093
#	115622
#	127777
#	143453
#	155814
#	166748
#	176904
#	185522
#	198015
#
# Disc length: 2857 seconds
#
# Revision: 2
# Processed by: cddbd v1.5.2PL0 Copyright (c) Steve Scherf et al.
# Submitted via: EZCDAudioConverter 3.1.5.1
#
DISCID=ce0b2711
DTITLE=John Lee Hooker - John Lee Hooker [CD 2)
DYEAR=2000
DGENRE=Blues
TTITLE0=House Rent Boogie
TTITLE1=Mama, You Got A Daughter
TTITLE2=Big Legs Tight Skirt
TTITLE3=Don't Look Back
TTITLE4=Hard Hearted Woman
TTITLE5=Dimples
TTITLE6=Boom Boom
TTITLE7=Bottle Up And Go
TTITLE8=Every Night
TTITLE9=I'm Mad Again
TTITLE10=One Way Ticket
TTITLE11=I'm In The Mood
TTITLE12=Little Fine Woman
TTITLE13=Want Ad Blues
TTITLE14=You Know I Love You
TTITLE15=Crawlin' King Snake
TTITLE16=Trying To Find A Woman
EXTD=
EXTT0=
EXTT1=
EXTT2=
EXTT3=
EXTT4=
EXTT5=
EXTT6=
EXTT7=
EXTT8=
EXTT9=
EXTT10=
EXTT11=
EXTT12=
EXTT13=
EXTT14=
EXTT15=
EXTT16=
PLAYORDER=
